<?xml version="1.0" standalone="no"?>
<!DOCTYPE svg PUBLIC "-//W3C//DTD SVG 20010904//EN"
 "http://www.w3.org/TR/2001/REC-SVG-20010904/DTD/svg10.dtd">
<svg version="1.0" xmlns="http://www.w3.org/2000/svg"
 width="350.000000pt" height="350.000000pt" viewBox="0 0 350.000000 350.000000"
 preserveAspectRatio="xMidYMid meet">
<metadata>
Created by potrace 1.14, written by Peter Selinger 2001-2017
</metadata>
<g transform="translate(0.000000,350.000000) scale(0.100000,-0.100000)"
fill="#000000" stroke="none">
<path d="M1595 3240 c-170 -18 -366 -75 -515 -150 -276 -139 -531 -394 -670
-669 -112 -223 -170 -503 -156 -744 41 -693 532 -1256 1213 -1394 135 -27 443
-25 580 5 295 64 539 197 753 412 214 213 349 460 410 748 27 125 37 364 21
487 -63 475 -340 887 -751 1120 -261 148 -588 216 -885 185z m-256 -344 c24
-75 42 -138 40 -140 -31 -23 -235 -182 -239 -186 -3 -3 -48 -39 -100 -80 -52
-40 -97 -76 -100 -79 -3 -3 -34 -28 -70 -56 -36 -27 -74 -58 -84 -67 -11 -10
-24 -18 -28 -18 -5 0 -6 -6 -2 -12 11 -20 -33 18 -118 101 l-77 74 42 61 c72
105 309 334 422 409 102 67 242 139 260 133 5 -1 30 -64 54 -140z m501 -541
c180 -23 365 -156 449 -324 50 -98 65 -165 65 -281 -1 -172 -56 -303 -178
-426 -79 -79 -136 -114 -246 -151 -96 -33 -251 -37 -344 -9 -349 105 -536 470
-411 802 79 210 273 365 493 393 66 8 81 8 172 -4z"/>
<path d="M1660 2099 c-32 -13 -78 -56 -96 -91 -34 -64 -8 -165 51 -204 l26
-17 -38 -21 c-86 -48 -110 -188 -47 -278 97 -139 333 -124 411 26 22 42 22
141 -1 184 -9 18 -34 45 -55 60 l-38 28 37 36 c82 78 54 215 -53 267 -47 23
-151 28 -197 10z m167 -93 c31 -28 38 -41 37 -73 0 -51 -28 -90 -74 -104 -75
-23 -139 17 -147 91 -4 36 -1 51 17 73 46 58 113 63 167 13z m-12 -276 c53
-25 75 -64 75 -130 0 -47 -4 -56 -39 -91 -35 -35 -44 -39 -90 -39 -67 0 -106
21 -131 70 -23 46 -25 78 -6 123 32 77 112 105 191 67z"/>
</g>
</svg>
